<?xml version="1.0" encoding="UTF-8"?>
<svg id="a" xmlns="http://www.w3.org/2000/svg" version="1.1" viewBox="0 0 1960 1080">
  <!-- Generator: Adobe Illustrator 30.0.0, SVG Export Plug-In . SVG Version: 2.1.1 Build 123)  -->
  <defs>
    <style>
      .st0 {
        fill: #edede3;
      }
    </style>
  </defs>
  <path class="st0" d="M1835,980c13.8,0,25-11.2,25-25v-161.9c0-80.9-65.7-146.7-146.7-146.7s-146.7,65.7-146.7,146.7v-335.3c0-80.9-65.7-146.7-146.7-146.7s-146.7,65.7-146.7,146.7v243.2c0-80.9-65.7-146.7-146.7-146.7s-146.7,65.7-146.7,146.7v92c0-80.9-65.7-146.7-146.7-146.7s-146.7,65.7-146.7,146.7v-261.7c0-80.9-65.7-146.7-146.7-146.7s-146.7,65.7-146.7,146.7v169.7c0-80.9-65.7-146.7-146.7-146.7s-146.7,65.7-146.7,146.7v253.9c0,13.8,11.2,25,25,25h1710Z"/>
</svg>