<?xml version="1.0" encoding="UTF-8"?>
<svg id="Artwork" xmlns="http://www.w3.org/2000/svg" version="1.1" viewBox="0 0 1000.6 500">
  <!-- Generator: Adobe Illustrator 30.0.0, SVG Export Plug-In . SVG Version: 2.1.1 Build 123)  -->
  <defs>
    <style>
      .st0 {
        fill: #4a1c5c;
      }
    </style>
  </defs>
  <polygon class="st0" points="658.5 207.5 643.7 303.4 628.8 207.5 573.5 207.5 614 349.9 670.1 349.9 710.6 207.5 658.5 207.5"/>
  <path class="st0" d="M778.3,349.8h-57.2v-110.8c15.1,1.1,42.7-3.3,57.2-12.1v122.9h0Z"/>
  <path class="st0" d="M849.8,349.8h-57.2v-131.5c15.1,1.1,42.7-3.3,57.2-12.1v143.6h0Z"/>
  <path class="st0" d="M779.3,194.4c0-13.4-13.6-21.7-30.4-18.5s-30.4,16.7-30.4,30.1,13.6,21.7,30.4,18.5,30.4-16.7,30.4-30.1Z"/>
  <path class="st0" d="M851.6,174.1c0-13.4-13.6-21.7-30.4-18.5s-30.4,16.7-30.4,30.1,13.6,21.7,30.4,18.5,30.4-16.7,30.4-30.1Z"/>
  <path class="st0" d="M371.7,298.1c8.7,0,14.3-6.7,14.3-31.1v-59.4h52.6v142.3h-41.5l-7.9-33.4c-2.5,13.8-17.2,34.7-40.8,34.7s-40.2-21-40.2-46.1v-97.5h53.5v73.3c0,11.2,3.5,17.2,10,17.2h0Z"/>
  <path class="st0" d="M566.9,207.5c-.8-.4-6.4-1.3-10.6-1.3-22.6,0-45.2,10.2-52.5,36.5l-8.3-35.2h-41.6v142.3h52.6v-49.9c0-27.6,19.2-38.9,29.3-38.9s12.5,2.2,17.4,4.3l13.6-57.8h0Z"/>
  <path class="st0" d="M293.2,342.6c-5,2.4-33.6,8.5-53.1,8.5-59.3,0-91.2-43.2-91.2-105.9s41.1-96.4,81.9-96.4,64.6,44.3,66.8,54.8l-53.3,33.4c-.4-23-5.2-47.6-16.1-47.6s-18.4,7.4-18.4,56.8,9.8,53.7,35.3,53.7,32.7-7.6,48-20.1v62.8h0Z"/>
</svg>