<?xml version="1.0" encoding="UTF-8"?>
<svg id="b" data-name="Layer 2" xmlns="http://www.w3.org/2000/svg" viewBox="0 0 346.4317 93.6033">
  <g id="c" data-name="Colour Variations Light">
    <g>
      <path d="M243.5838,0c-8.6833,0-17.9397,6.7417-22.6733,21.4178v-12.5973c0-4.8638-3.957-8.8206-8.8208-8.8206s-8.8208,3.9568-8.8208,8.8206l-.0002,75.9621c0,4.8638,3.957,8.8206,8.8208,8.8206s8.8208-3.9568,8.8208-8.8206v-35.679c.0001-17.1604,9.6904-27.3388,24.5705-30.6747,4.7556-1.0662,7.7097-4.6555,7.7097-9.3677,0-5.3352-3.9504-9.0613-9.6067-9.0613Z" fill="#13b5ea"/>
      <path d="M299.6302,0c-25.8064,0-46.8015,20.9951-46.8015,46.8015s20.9951,46.8018,46.8015,46.8018,46.8015-20.9951,46.8015-46.8018S325.4366,0,299.6302,0ZM299.6302,75.9688c-16.0828,0-29.1672-13.0845-29.1672-29.1672s13.0845-29.167,29.1672-29.167,29.1672,13.0842,29.1672,29.167-13.0845,29.1672-29.1672,29.1672Z" fill="#13b5ea"/>
      <path d="M299.6302,35.1443c-6.428,0-11.6572,5.2292-11.6572,11.6572s5.2292,11.6572,11.6572,11.6572,11.6572-5.2292,11.6572-11.6572-5.2292-11.6572-11.6572-11.6572Z" fill="#13b5ea"/>
      <path d="M142.9366,0c-25.8174,0-46.821,20.9951-46.821,46.8015,0,26.0399,20.3829,46.8015,48.5762,46.8015,13.761,0,25.1208-4.1838,34.7285-12.7905,1.0376-1.0386,2.8066-3.2876,2.8066-6.5015,0-4.8647-3.6196-8.5332-8.4199-8.5332-2.4761,0-3.8738.7102-5.4514,1.9373-6.9382,5.7141-14.5613,8.4954-23.2954,8.4954-14.8969,0-27.0686-8.7637-30.4014-21.9738l64.6855.0002c5.9639-.0229,10.2881-4.8318,10.2881-11.4514,0-16.0072-15.6938-42.7854-46.6958-42.7854ZM114.6328,39.3408c3.132-12.9184,14.3078-22.1355,28.3038-22.1355,13.7937,0,25.0698,8.2394,28.2766,22.1355h-56.5804Z" fill="#13b5ea"/>
      <path d="M93.6023,8.7122c0-4.8212-3.9078-8.7122-8.7117-8.7122-2.3271,0-4.5149.9062-6.1604,2.5518l-31.9291,31.9281L14.8721,2.5518c-1.6455-1.6455-3.8333-2.5518-6.1604-2.5518C3.9078,0,0,3.891,0,8.7122c0,2.3271.906,4.5149,2.5515,6.1602l31.9288,31.9281L2.5515,78.7283c-1.6453,1.6455-2.5515,3.8333-2.5515,6.1604,0,4.8193,3.8974,8.7122,8.7119,8.7122,2.3269,0,4.5149-.9062,6.1604-2.5518l31.9288-31.9281,31.9288,31.9281c1.6455,1.6455,3.8335,2.5518,6.1604,2.5518,4.8145,0,8.7119-3.8929,8.7119-8.7122,0-2.3271-.9062-4.5149-2.5515-6.1604l-31.9288-31.9279,31.9288-31.9281c1.6455-1.6453,2.5515-3.833,2.5515-6.1602Z" fill="#13b5ea"/>
    </g>
  </g>
</svg>